/* XPM */
static char * close_pressed_xpm[] = {
"25 25 19 1",
" 	c None",
".	c #D62635",
"+	c #D52735",
"@	c #D52835",
"#	c #A41E29",
"$	c #851821",
"%	c #C72431",
"&	c #A51E29",
"*	c #D52834",
"=	c #6A131A",
"-	c #77161E",
";	c #B9222E",
">	c #C82532",
",	c #78161E",
"'	c #C62431",
")	c #D52734",
"!	c #861821",
"~	c #D62735",
"{	c #D52736",
"                         ",
"                         ",
"                         ",
"                         ",
"                         ",
"          .++++          ",
"        @++++++++        ",
"       +++++++++++       ",
"      @++++++++++++      ",
"      +++#$%+%$&+++      ",
"     *+++$=-;-=$++++     ",
"     ++++>,===-'++++     ",
"     +++++;===;+++++     ",
"     ++++>,===-'++++     ",
"     ++++$=-;-=$+++)     ",
"      +++&!%+%!&+++      ",
"      ++++++++++++~      ",
"       +++++++++++       ",
"        ++++++++~        ",
"          ++++{          ",
"                         ",
"                         ",
"                         ",
"                         ",
"                         "};
