/* XPM */
static char * close_prelight_xpm[] = {
"25 25 35 1",
" 	c None",
".	c #DB2F3B",
"+	c #E03642",
"@	c #E23944",
"#	c #E03641",
"$	c #DB2E3B",
"%	c #DC303D",
"&	c #EB464E",
"*	c #F25056",
"=	c #DB313C",
"-	c #DF3641",
";	c #F14F55",
">	c #F14E55",
",	c #E03540",
"'	c #DB313D",
")	c #BA3D42",
"!	c #973236",
"~	c #E24B50",
"{	c #BB3E42",
"]	c #DA2F3B",
"^	c #79282B",
"/	c #872D30",
"(	c #D2454B",
"_	c #DC2F3C",
":	c #E34B51",
"<	c #892D31",
"[	c #E14A50",
"}	c #E03742",
"|	c #DF3741",
"1	c #DA2F3A",
"2	c #983236",
"3	c #EA464D",
"4	c #DB303D",
"5	c #DA2E3C",
"6	c #D92E3B",
"                         ",
"                         ",
"                         ",
"                         ",
"                         ",
"          .+@#$          ",
"        %&*****&=        ",
"       -;*******>,       ",
"      %;*********>'      ",
"      &**)!~*~!{**&      ",
"     ]***!^/(/^!***_     ",
"     +***:<^^^/[***}     ",
"     @****(^^^(****@     ",
"     #***:<^^^/[***|     ",
"     $***!^/(/^!***1     ",
"      &**{2~*~2{**3      ",
"      =>*********>4      ",
"       ,>*******>,       ",
"        '&*****34        ",
"          5}@}6          ",
"                         ",
"                         ",
"                         ",
"                         ",
"                         "};
