/* XPM */
static char * close_active_xpm[] = {
"25 25 24 1",
" 	c None",
".	c #DB2F3B",
"+	c #E03642",
"@	c #E23944",
"#	c #E03641",
"$	c #DB2E3B",
"%	c #DC303D",
"&	c #EB464E",
"*	c #F25056",
"=	c #DB313C",
"-	c #DF3641",
";	c #F14F55",
">	c #F14E55",
",	c #E03540",
"'	c #DB313D",
")	c #DA2F3B",
"!	c #DC2F3C",
"~	c #E03742",
"{	c #DF3741",
"]	c #DA2F3A",
"^	c #EA464D",
"/	c #DB303D",
"(	c #DA2E3C",
"_	c #D92E3B",
"                         ",
"                         ",
"                         ",
"                         ",
"                         ",
"          .+@#$          ",
"        %&*****&=        ",
"       -;*******>,       ",
"      %;*********>'      ",
"      &***********&      ",
"     )*************!     ",
"     +*************~     ",
"     @*************@     ",
"     #*************{     ",
"     $*************]     ",
"      &***********^      ",
"      =>*********>/      ",
"       ,>*******>,       ",
"        '&*****^/        ",
"          (~@~_          ",
"                         ",
"                         ",
"                         ",
"                         ",
"                         "};
