/* XPM */
static char * hide_prelight_xpm[] = {
"25 25 37 1",
" 	c None",
".	c #E0A617",
"+	c #E6AE1F",
"@	c #E9AF21",
"#	c #E0A517",
"$	c #E1A819",
"%	c #F2BC2D",
"&	c #FAC536",
"*	c #F2BB2D",
"=	c #E1A719",
"-	c #E6AB1E",
";	c #F9C435",
">	c #F9C434",
",	c #E4AC1E",
"'	c #DFA617",
")	c #E0A717",
"!	c #E6AD1F",
"~	c #DEAF30",
"{	c #B08B26",
"]	c #AF8A26",
"^	c #DFAF30",
"/	c #E6AE1E",
"(	c #E8AF21",
"_	c #9E7C22",
":	c #7D621B",
"<	c #9F7D22",
"[	c #E9B022",
"}	c #B18C26",
"|	c #E0B030",
"1	c #E6AD1E",
"2	c #DFA516",
"3	c #DFA517",
"4	c #F2BC2C",
"5	c #E2A818",
"6	c #E4AB1E",
"7	c #DEA516",
"8	c #DEA417",
"                         ",
"                         ",
"                         ",
"                         ",
"                         ",
"          .+@+#          ",
"        $%&&&&&*=        ",
"       -;&&&&&&&>,       ",
"      $;&&&&&&&&&>=      ",
"      %&&&&&&&&&&&*      ",
"     '&&&&&&&&&&&&&)     ",
"     !&&~{]]]]]{^&&/     ",
"     (&&_:::::::<&&[     ",
"     +&&^}]]]]]}|&&1     ",
"     2&&&&&&&&&&&&&3     ",
"      *&&&&&&&&&&&4      ",
"      =>&&&&&&&&&>5      ",
"       ,>&&&&&&&>6       ",
"        =*&&&&&45        ",
"          7/(/8          ",
"                         ",
"                         ",
"                         ",
"                         ",
"                         "};
