/* XPM */
static char * hide_pressed_xpm[] = {
"25 25 15 1",
" 	c None",
".	c #DA9E10",
"+	c #DA9F10",
"@	c #D99E0F",
"#	c #C18C0E",
"$	c #9A700B",
"%	c #986E0B",
"&	c #C28D0E",
"*	c #8A640A",
"=	c #6D4F08",
"-	c #9B700B",
";	c #C38D0E",
">	c #DB9D10",
",	c #DB9E10",
"'	c #D99E10",
"                         ",
"                         ",
"                         ",
"                         ",
"                         ",
"          .+.+.          ",
"        .........        ",
"       ...........       ",
"      .............      ",
"      .............      ",
"     +..............     ",
"     @..#$%%%%%$&...     ",
"     ...*=======*...     ",
"     +..&-%%%%%-;...     ",
"     ..............>     ",
"      .............      ",
"      ............,      ",
"       ...........       ",
"        ........,        ",
"          ....'          ",
"                         ",
"                         ",
"                         ",
"                         ",
"                         "};
