/* XPM */
static char * hide_active_xpm[] = {
"25 25 28 1",
" 	c None",
".	c #E0A617",
"+	c #E6AE1F",
"@	c #E9AF21",
"#	c #E0A517",
"$	c #E1A819",
"%	c #F2BC2D",
"&	c #FAC536",
"*	c #F2BB2D",
"=	c #E1A719",
"-	c #E6AB1E",
";	c #F9C435",
">	c #F9C434",
",	c #E4AC1E",
"'	c #DFA617",
")	c #E0A717",
"!	c #E6AD1F",
"~	c #E6AE1E",
"{	c #E8AF21",
"]	c #E9B022",
"^	c #E6AD1E",
"/	c #DFA516",
"(	c #DFA517",
"_	c #F2BC2C",
":	c #E2A818",
"<	c #E4AB1E",
"[	c #DEA516",
"}	c #DEA417",
"                         ",
"                         ",
"                         ",
"                         ",
"                         ",
"          .+@+#          ",
"        $%&&&&&*=        ",
"       -;&&&&&&&>,       ",
"      $;&&&&&&&&&>=      ",
"      %&&&&&&&&&&&*      ",
"     '&&&&&&&&&&&&&)     ",
"     !&&&&&&&&&&&&&~     ",
"     {&&&&&&&&&&&&&]     ",
"     +&&&&&&&&&&&&&^     ",
"     /&&&&&&&&&&&&&(     ",
"      *&&&&&&&&&&&_      ",
"      =>&&&&&&&&&>:      ",
"       ,>&&&&&&&><       ",
"        =*&&&&&_:        ",
"          [~{~}          ",
"                         ",
"                         ",
"                         ",
"                         ",
"                         "};
