/* XPM */
static char * maximize_active_xpm[] = {
"25 25 23 1",
" 	c None",
".	c #1AC827",
"+	c #22D12F",
"@	c #24D331",
"#	c #1AC926",
"$	c #1CCB28",
"%	c #30E03F",
"&	c #39EA49",
"*	c #30E03E",
"=	c #1BCB28",
"-	c #20CF2F",
";	c #38E948",
">	c #20CF2D",
",	c #1BCB27",
"'	c #19C825",
")	c #1ACA27",
"!	c #22D02F",
"~	c #22D12E",
"{	c #24D231",
"]	c #1AC826",
"^	c #1AC726",
"/	c #30DF3F",
"(	c #1CCA28",
"                         ",
"                         ",
"                         ",
"                         ",
"                         ",
"          .+@+#          ",
"        $%&&&&&*=        ",
"       -;&&&&&&&;>       ",
"      $;&&&&&&&&&;,      ",
"      %&&&&&&&&&&&*      ",
"     '&&&&&&&&&&&&&)     ",
"     !&&&&&&&&&&&&&~     ",
"     {&&&&&&&&&&&&&@     ",
"     +&&&&&&&&&&&&&~     ",
"     ]&&&&&&&&&&&&&^     ",
"      *&&&&&&&&&&&/      ",
"      =;&&&&&&&&&;(      ",
"       >;&&&&&&&;>       ",
"        ,*&&&&&/(        ",
"          #~{~^          ",
"                         ",
"                         ",
"                         ",
"                         ",
"                         "};
