/* XPM */
static char * hide_inactive_xpm[] = {
"25 25 13 1",
" 	c None",
".	c #4E5153",
"+	c #4F4F53",
"@	c #4F5053",
"#	c #4E5054",
"$	c #4F4F54",
"%	c #4F5052",
"&	c #4F5154",
"*	c #4E5053",
"=	c #4E5052",
"-	c #505152",
";	c #505053",
">	c #505052",
"                         ",
"                         ",
"                         ",
"                         ",
"                         ",
"          .++@#          ",
"        @@@@@@@@$        ",
"       +@@@@@@@@@@       ",
"      @@@@@@@@@@@@%      ",
"      @@@@@@@@@@@@@      ",
"     $@@@@@@@@@@@@@&     ",
"     +@@@@@@@@@@@@@#     ",
"     %@@@@@@@@@@@@@%     ",
"     @@@@@@@@@@@@@@*     ",
"     =@@@@@@@@@@@@@-     ",
"      @@@@@@@@@@@@@      ",
"      $@@@@@@@@@@@@      ",
"       @@@@@@@@@@;       ",
"        %@@@@@@@@        ",
"          @#%#>          ",
"                         ",
"                         ",
"                         ",
"                         ",
"                         "};
