/* XPM */
static char * maximize_prelight_xpm[] = {
"25 25 38 1",
" 	c None",
".	c #1AC827",
"+	c #22D12F",
"@	c #24D331",
"#	c #1AC926",
"$	c #1CCB28",
"%	c #30E03F",
"&	c #39EA49",
"*	c #30E03E",
"=	c #1BCB28",
"-	c #20CF2F",
";	c #38E948",
">	c #20CF2D",
",	c #1BCB27",
"'	c #38E748",
")	c #28A333",
"!	c #24942E",
"~	c #25962F",
"{	c #33D141",
"]	c #19C825",
"^	c #36DC45",
"/	c #208429",
"(	c #1C7524",
"_	c #259830",
":	c #1ACA27",
"<	c #22D02F",
"[	c #28A433",
"}	c #35DA44",
"|	c #20852A",
"1	c #22D12E",
"2	c #24D231",
"3	c #208329",
"4	c #28A634",
"5	c #1AC826",
"6	c #1AC726",
"7	c #25972F",
"8	c #30DF3F",
"9	c #1CCA28",
"                         ",
"                         ",
"                         ",
"                         ",
"                         ",
"          .+@+#          ",
"        $%&&&&&*=        ",
"       -;&&&&&&&;>       ",
"      $;&&&&&&&&&;,      ",
"      %&&&')!!~{&&*      ",
"     ]&&&'&^/((_&&&:     ",
"     <&&&[}&^|(~&&&1     ",
"     2&&&~3}&^|~&&&@     ",
"     +&&&~(3}&^4&&&1     ",
"     5&&&_((/^&'&&&6     ",
"      *&&{7!!)'&&&8      ",
"      =;&&&&&&&&&;9      ",
"       >;&&&&&&&;>       ",
"        ,*&&&&&89        ",
"          #1216          ",
"                         ",
"                         ",
"                         ",
"                         ",
"                         "};
