/* XPM */
static char * maximize_pressed_xpm[] = {
"25 25 20 1",
" 	c None",
".	c #13C01E",
"+	c #13C11E",
"@	c #13C11F",
"#	c #13BF1E",
"$	c #0D8715",
"%	c #0C7A13",
"&	c #0C7C13",
"*	c #11AD1B",
"=	c #12C11E",
"-	c #12B61C",
";	c #0B6D11",
">	c #09600F",
",	c #0C7E14",
"'	c #12B41C",
")	c #0B6E11",
"!	c #0B6C11",
"~	c #0D8915",
"{	c #13C01F",
"]	c #0C7D13",
"                         ",
"                         ",
"                         ",
"                         ",
"                         ",
"          .++++          ",
"        +++++++++        ",
"       @++++++++++       ",
"      +++++++++++++      ",
"      ++++#$%%&*+++      ",
"     =+++#+-;>>,++++     ",
"     ++++$'+-)>&++++     ",
"     ++++&!'+-)&++++     ",
"     ++++&>!'+-~++++     ",
"     ++++,>>;-+#+++{     ",
"      +++*]%%$#++++      ",
"      +++++++++++++      ",
"       +++++++++++       ",
"        +++++++++        ",
"          +++++          ",
"                         ",
"                         ",
"                         ",
"                         ",
"                         "};
